<?xml version="1.0" encoding="UTF-8"?>
<svg xmlns="http://www.w3.org/2000/svg" xmlns:xlink="http://www.w3.org/1999/xlink" width="134pt" height="139pt" viewBox="0 0 134 139" version="1.1">
<g id="surface1">
<path style="fill-rule:nonzero;fill:rgb(89.99939%,89.99939%,89.99939%);fill-opacity:1;stroke-width:0.3985;stroke-linecap:butt;stroke-linejoin:miter;stroke:rgb(0%,0%,0%);stroke-opacity:1;stroke-miterlimit:10;" d="M -7.084818 -7.084969 L 7.086632 -7.084969 L 7.086632 7.086906 L -7.084818 7.086906 Z M -7.084818 -7.084969 " transform="matrix(1.00003,0,0,-1,8.67878,8.208)"/>
<path style="fill-rule:nonzero;fill:rgb(89.99939%,89.99939%,89.99939%);fill-opacity:1;stroke-width:0.3985;stroke-linecap:butt;stroke-linejoin:miter;stroke:rgb(0%,0%,0%);stroke-opacity:1;stroke-miterlimit:10;" d="M -7.084818 -7.088594 L 7.086632 -7.088594 L 7.086632 7.087188 L -7.084818 7.087188 Z M -7.084818 -7.088594 " transform="matrix(1.00003,0,0,-1,8.67878,38.72)"/>
<path style="fill-rule:nonzero;fill:rgb(89.99939%,89.99939%,89.99939%);fill-opacity:1;stroke-width:0.3985;stroke-linecap:butt;stroke-linejoin:miter;stroke:rgb(0%,0%,0%);stroke-opacity:1;stroke-miterlimit:10;" d="M -7.086815 -7.088594 L 7.088541 -7.088594 L 7.088541 7.087188 L -7.086815 7.087188 Z M -7.086815 -7.088594 " transform="matrix(1.00003,0,0,-1,25.243277,38.72)"/>
<path style="fill-rule:nonzero;fill:rgb(89.99939%,89.99939%,89.99939%);fill-opacity:1;stroke-width:0.3985;stroke-linecap:butt;stroke-linejoin:miter;stroke:rgb(0%,0%,0%);stroke-opacity:1;stroke-miterlimit:10;" d="M -7.084818 -7.088312 L 7.086632 -7.088312 L 7.086632 7.087469 L -7.084818 7.087469 Z M -7.084818 -7.088312 " transform="matrix(1.00003,0,0,-1,8.67878,69.232)"/>
<path style="fill-rule:nonzero;fill:rgb(89.99939%,89.99939%,89.99939%);fill-opacity:1;stroke-width:0.3985;stroke-linecap:butt;stroke-linejoin:miter;stroke:rgb(0%,0%,0%);stroke-opacity:1;stroke-miterlimit:10;" d="M -7.086815 -7.088312 L 7.088541 -7.088312 L 7.088541 7.087469 L -7.086815 7.087469 Z M -7.086815 -7.088312 " transform="matrix(1.00003,0,0,-1,25.243277,69.232)"/>
<path style="fill-rule:nonzero;fill:rgb(89.99939%,89.99939%,89.99939%);fill-opacity:1;stroke-width:0.3985;stroke-linecap:butt;stroke-linejoin:miter;stroke:rgb(0%,0%,0%);stroke-opacity:1;stroke-miterlimit:10;" d="M -7.084905 -7.088312 L 7.086544 -7.088312 L 7.086544 7.087469 L -7.084905 7.087469 Z M -7.084905 -7.088312 " transform="matrix(1.00003,0,0,-1,41.807774,69.232)"/>
<path style="fill-rule:nonzero;fill:rgb(100%,100%,100%);fill-opacity:1;stroke-width:0.3985;stroke-linecap:butt;stroke-linejoin:miter;stroke:rgb(0%,0%,0%);stroke-opacity:1;stroke-miterlimit:10;" d="M -7.086902 -7.088312 L 7.088454 -7.088312 L 7.088454 7.087469 L -7.086902 7.087469 Z M -7.086902 -7.088312 " transform="matrix(1.00003,0,0,-1,58.372271,69.232)"/>
<path style="fill-rule:nonzero;fill:rgb(89.99939%,89.99939%,89.99939%);fill-opacity:1;stroke-width:0.3985;stroke-linecap:butt;stroke-linejoin:miter;stroke:rgb(0%,0%,0%);stroke-opacity:1;stroke-miterlimit:10;" d="M -7.084818 -7.088031 L 7.086632 -7.088031 L 7.086632 7.08775 L -7.084818 7.08775 Z M -7.084818 -7.088031 " transform="matrix(1.00003,0,0,-1,8.67878,99.744)"/>
<path style="fill-rule:nonzero;fill:rgb(89.99939%,89.99939%,89.99939%);fill-opacity:1;stroke-width:0.3985;stroke-linecap:butt;stroke-linejoin:miter;stroke:rgb(0%,0%,0%);stroke-opacity:1;stroke-miterlimit:10;" d="M -7.086815 -7.088031 L 7.088541 -7.088031 L 7.088541 7.08775 L -7.086815 7.08775 Z M -7.086815 -7.088031 " transform="matrix(1.00003,0,0,-1,25.243277,99.744)"/>
<path style="fill-rule:nonzero;fill:rgb(89.99939%,89.99939%,89.99939%);fill-opacity:1;stroke-width:0.3985;stroke-linecap:butt;stroke-linejoin:miter;stroke:rgb(0%,0%,0%);stroke-opacity:1;stroke-miterlimit:10;" d="M -7.084905 -7.088031 L 7.086544 -7.088031 L 7.086544 7.08775 L -7.084905 7.08775 Z M -7.084905 -7.088031 " transform="matrix(1.00003,0,0,-1,41.807774,99.744)"/>
<path style="fill-rule:nonzero;fill:rgb(89.99939%,89.99939%,89.99939%);fill-opacity:1;stroke-width:0.3985;stroke-linecap:butt;stroke-linejoin:miter;stroke:rgb(0%,0%,0%);stroke-opacity:1;stroke-miterlimit:10;" d="M -7.086902 -7.088031 L 7.088454 -7.088031 L 7.088454 7.08775 L -7.086902 7.08775 Z M -7.086902 -7.088031 " transform="matrix(1.00003,0,0,-1,58.372271,99.744)"/>
<path style="fill-rule:nonzero;fill:rgb(89.99939%,89.99939%,89.99939%);fill-opacity:1;stroke-width:0.3985;stroke-linecap:butt;stroke-linejoin:miter;stroke:rgb(0%,0%,0%);stroke-opacity:1;stroke-miterlimit:10;" d="M -7.084818 -7.08775 L 7.086632 -7.08775 L 7.086632 7.088031 L -7.084818 7.088031 Z M -7.084818 -7.08775 " transform="matrix(1.00003,0,0,-1,8.67878,130.256)"/>
<path style="fill-rule:nonzero;fill:rgb(89.99939%,89.99939%,89.99939%);fill-opacity:1;stroke-width:0.3985;stroke-linecap:butt;stroke-linejoin:miter;stroke:rgb(0%,0%,0%);stroke-opacity:1;stroke-miterlimit:10;" d="M -7.086815 -7.08775 L 7.088541 -7.08775 L 7.088541 7.088031 L -7.086815 7.088031 Z M -7.086815 -7.08775 " transform="matrix(1.00003,0,0,-1,25.243277,130.256)"/>
<path style="fill-rule:nonzero;fill:rgb(89.99939%,89.99939%,89.99939%);fill-opacity:1;stroke-width:0.3985;stroke-linecap:butt;stroke-linejoin:miter;stroke:rgb(0%,0%,0%);stroke-opacity:1;stroke-miterlimit:10;" d="M -7.084905 -7.08775 L 7.086544 -7.08775 L 7.086544 7.088031 L -7.084905 7.088031 Z M -7.084905 -7.08775 " transform="matrix(1.00003,0,0,-1,41.807774,130.256)"/>
<path style="fill-rule:nonzero;fill:rgb(89.99939%,89.99939%,89.99939%);fill-opacity:1;stroke-width:0.3985;stroke-linecap:butt;stroke-linejoin:miter;stroke:rgb(0%,0%,0%);stroke-opacity:1;stroke-miterlimit:10;" d="M -7.086902 -7.08775 L 7.088454 -7.08775 L 7.088454 7.088031 L -7.086902 7.088031 Z M -7.086902 -7.08775 " transform="matrix(1.00003,0,0,-1,58.372271,130.256)"/>
<path style="fill-rule:nonzero;fill:rgb(89.99939%,89.99939%,89.99939%);fill-opacity:1;stroke-width:0.3985;stroke-linecap:butt;stroke-linejoin:miter;stroke:rgb(0%,0%,0%);stroke-opacity:1;stroke-miterlimit:10;" d="M -7.084993 -7.08775 L 7.086457 -7.08775 L 7.086457 7.088031 L -7.084993 7.088031 Z M -7.084993 -7.08775 " transform="matrix(1.00003,0,0,-1,74.936768,130.256)"/>
<path style="fill-rule:nonzero;fill:rgb(100%,100%,100%);fill-opacity:1;stroke-width:0.3985;stroke-linecap:butt;stroke-linejoin:miter;stroke:rgb(0%,0%,0%);stroke-opacity:1;stroke-miterlimit:10;" d="M -7.08799 -7.08775 L 7.087366 -7.08775 L 7.087366 7.088031 L -7.08799 7.088031 Z M -7.08799 -7.08775 " transform="matrix(1.00003,0,0,-1,91.502265,130.256)"/>
<path style="fill-rule:nonzero;fill:rgb(100%,100%,100%);fill-opacity:1;stroke-width:0.3985;stroke-linecap:butt;stroke-linejoin:miter;stroke:rgb(0%,0%,0%);stroke-opacity:1;stroke-miterlimit:10;" d="M -7.086081 -7.08775 L 7.085369 -7.08775 L 7.085369 7.088031 L -7.086081 7.088031 Z M -7.086081 -7.08775 " transform="matrix(1.00003,0,0,-1,108.066762,130.256)"/>
<path style="fill-rule:nonzero;fill:rgb(100%,100%,100%);fill-opacity:1;stroke-width:0.3985;stroke-linecap:butt;stroke-linejoin:miter;stroke:rgb(0%,0%,0%);stroke-opacity:1;stroke-miterlimit:10;" d="M -7.088077 -7.08775 L 7.087279 -7.08775 L 7.087279 7.088031 L -7.088077 7.088031 Z M -7.088077 -7.08775 " transform="matrix(1.00003,0,0,-1,124.631259,130.256)"/>
<path style="fill:none;stroke-width:0.3985;stroke-linecap:butt;stroke-linejoin:miter;stroke:rgb(0%,0%,0%);stroke-opacity:1;stroke-miterlimit:10;" d="M 124.193907 -18.091188 L 124.193907 -33.634156 " transform="matrix(1.00003,0,0,-1,-115.517945,-2.599)"/>
<path style="fill:none;stroke-width:0.3985;stroke-linecap:round;stroke-linejoin:round;stroke:rgb(0%,0%,0%);stroke-opacity:1;stroke-miterlimit:10;" d="M -2.073714 2.39146 C -1.694807 0.95791 -0.851057 0.278243 0.000505 0.000907133 C -0.851057 -0.280334 -1.694807 -0.956095 -2.073714 -2.389646 " transform="matrix(0,1,1.00003,0,8.67878,31.23387)"/>
<path style="fill:none;stroke-width:0.3985;stroke-linecap:butt;stroke-linejoin:miter;stroke:rgb(0%,0%,0%);stroke-opacity:1;stroke-miterlimit:10;" d="M 124.193907 -48.602906 L 124.193907 -64.145875 " transform="matrix(1.00003,0,0,-1,-115.517945,-2.599)"/>
<path style="fill:none;stroke-width:0.3985;stroke-linecap:round;stroke-linejoin:round;stroke:rgb(0%,0%,0%);stroke-opacity:1;stroke-miterlimit:10;" d="M -2.070419 2.39146 C -1.695419 0.95791 -0.851669 0.278243 -0.00010625 0.000907133 C -0.851669 -0.280334 -1.695419 -0.956095 -2.070419 -2.389646 " transform="matrix(0,1,1.00003,0,8.67878,61.7462)"/>
<path style="fill:none;stroke-width:0.3985;stroke-linecap:butt;stroke-linejoin:miter;stroke:rgb(0%,0%,0%);stroke-opacity:1;stroke-miterlimit:10;" d="M 140.75591 -48.602906 L 140.75591 -64.145875 " transform="matrix(1.00003,0,0,-1,-115.517945,-2.599)"/>
<path style="fill:none;stroke-width:0.3985;stroke-linecap:round;stroke-linejoin:round;stroke:rgb(0%,0%,0%);stroke-opacity:1;stroke-miterlimit:10;" d="M -2.070419 2.39294 C -1.695419 0.955483 -0.851669 0.279722 -0.00010625 -0.00151973 C -0.851669 -0.278855 -1.695419 -0.954616 -2.070419 -2.392073 " transform="matrix(0,1,1.00003,0,25.243707,61.7462)"/>
<path style="fill:none;stroke-width:0.3985;stroke-linecap:butt;stroke-linejoin:miter;stroke:rgb(0%,0%,0%);stroke-opacity:1;stroke-miterlimit:10;" d="M 124.193907 -109.63025 L 124.193907 -125.169313 " transform="matrix(1.00003,0,0,-1,-115.517945,-2.599)"/>
<path style="fill:none;stroke-width:0.3985;stroke-linecap:round;stroke-linejoin:round;stroke:rgb(0%,0%,0%);stroke-opacity:1;stroke-miterlimit:10;" d="M -2.071611 2.39146 C -1.692705 0.95791 -0.848955 0.278243 -0.00129875 0.000907133 C -0.848955 -0.280334 -1.692705 -0.956095 -2.071611 -2.389646 " transform="matrix(0,1,1.00003,0,8.67878,122.77083)"/>
<path style="fill:none;stroke-width:0.3985;stroke-linecap:butt;stroke-linejoin:miter;stroke:rgb(0%,0%,0%);stroke-opacity:1;stroke-miterlimit:10;" d="M 140.75591 -109.63025 L 140.75591 -125.169313 " transform="matrix(1.00003,0,0,-1,-115.517945,-2.599)"/>
<path style="fill:none;stroke-width:0.3985;stroke-linecap:round;stroke-linejoin:round;stroke:rgb(0%,0%,0%);stroke-opacity:1;stroke-miterlimit:10;" d="M -2.071611 2.39294 C -1.692705 0.955483 -0.848955 0.279722 -0.00129875 -0.00151973 C -0.848955 -0.278855 -1.692705 -0.954616 -2.071611 -2.392073 " transform="matrix(0,1,1.00003,0,25.243707,122.77083)"/>
<path style="fill:none;stroke-width:0.3985;stroke-linecap:butt;stroke-linejoin:miter;stroke:rgb(0%,0%,0%);stroke-opacity:1;stroke-miterlimit:10;" d="M 157.32182 -109.63025 L 157.32182 -125.169313 " transform="matrix(1.00003,0,0,-1,-115.517945,-2.599)"/>
<path style="fill:none;stroke-width:0.3985;stroke-linecap:round;stroke-linejoin:round;stroke:rgb(0%,0%,0%);stroke-opacity:1;stroke-miterlimit:10;" d="M -2.071611 2.390493 C -1.692705 0.956942 -0.848955 0.277275 -0.00129875 -0.0000604546 C -0.848955 -0.277396 -1.692705 -0.957063 -2.071611 -2.390614 " transform="matrix(0,1,1.00003,0,41.808654,122.77083)"/>
<path style="fill:none;stroke-width:0.3985;stroke-linecap:butt;stroke-linejoin:miter;stroke:rgb(0%,0%,0%);stroke-opacity:1;stroke-miterlimit:10;" d="M 173.887729 -109.63025 L 173.887729 -125.169313 " transform="matrix(1.00003,0,0,-1,-115.517945,-2.599)"/>
<path style="fill:none;stroke-width:0.3985;stroke-linecap:round;stroke-linejoin:round;stroke:rgb(0%,0%,0%);stroke-opacity:1;stroke-miterlimit:10;" d="M -2.071611 2.391962 C -1.692705 0.954505 -0.848955 0.278744 -0.00129875 0.00140882 C -0.848955 -0.279833 -1.692705 -0.955594 -2.071611 -2.389144 " transform="matrix(0,1,1.00003,0,58.373591,122.77083)"/>
</g>
</svg>
