<?xml version="1.0" encoding="UTF-8"?>
<svg xmlns="http://www.w3.org/2000/svg" xmlns:xlink="http://www.w3.org/1999/xlink" width="84pt" height="139pt" viewBox="0 0 84 139" version="1.1">
<g id="surface1">
<path style="fill-rule:nonzero;fill:rgb(89.99939%,89.99939%,89.99939%);fill-opacity:1;stroke-width:0.3985;stroke-linecap:butt;stroke-linejoin:miter;stroke:rgb(0%,0%,0%);stroke-opacity:1;stroke-miterlimit:10;" d="M -7.086156 -7.084969 L 7.085719 -7.084969 L 7.085719 7.086906 L -7.086156 7.086906 Z M -7.086156 -7.084969 " transform="matrix(1,0,0,-1,8.676,8.208)"/>
<path style="fill-rule:nonzero;fill:rgb(89.99939%,89.99939%,89.99939%);fill-opacity:1;stroke-width:0.3985;stroke-linecap:butt;stroke-linejoin:miter;stroke:rgb(0%,0%,0%);stroke-opacity:1;stroke-miterlimit:10;" d="M -7.086156 -7.088594 L 7.085719 -7.088594 L 7.085719 7.087188 L -7.086156 7.087188 Z M -7.086156 -7.088594 " transform="matrix(1,0,0,-1,8.676,38.72)"/>
<path style="fill-rule:nonzero;fill:rgb(89.99939%,89.99939%,89.99939%);fill-opacity:1;stroke-width:0.3985;stroke-linecap:butt;stroke-linejoin:miter;stroke:rgb(0%,0%,0%);stroke-opacity:1;stroke-miterlimit:10;" d="M -7.08475 -7.088594 L 7.087125 -7.088594 L 7.087125 7.087188 L -7.08475 7.087188 Z M -7.08475 -7.088594 " transform="matrix(1,0,0,-1,25.241,38.72)"/>
<path style="fill-rule:nonzero;fill:rgb(89.99939%,89.99939%,89.99939%);fill-opacity:1;stroke-width:0.3985;stroke-linecap:butt;stroke-linejoin:miter;stroke:rgb(0%,0%,0%);stroke-opacity:1;stroke-miterlimit:10;" d="M -7.086156 -7.088312 L 7.085719 -7.088312 L 7.085719 7.087469 L -7.086156 7.087469 Z M -7.086156 -7.088312 " transform="matrix(1,0,0,-1,8.676,69.232)"/>
<path style="fill-rule:nonzero;fill:rgb(89.99939%,89.99939%,89.99939%);fill-opacity:1;stroke-width:0.3985;stroke-linecap:butt;stroke-linejoin:miter;stroke:rgb(0%,0%,0%);stroke-opacity:1;stroke-miterlimit:10;" d="M -7.08475 -7.088312 L 7.087125 -7.088312 L 7.087125 7.087469 L -7.08475 7.087469 Z M -7.08475 -7.088312 " transform="matrix(1,0,0,-1,25.241,69.232)"/>
<path style="fill-rule:nonzero;fill:rgb(89.99939%,89.99939%,89.99939%);fill-opacity:1;stroke-width:0.3985;stroke-linecap:butt;stroke-linejoin:miter;stroke:rgb(0%,0%,0%);stroke-opacity:1;stroke-miterlimit:10;" d="M -7.08625 -7.088312 L 7.085625 -7.088312 L 7.085625 7.087469 L -7.08625 7.087469 Z M -7.08625 -7.088312 " transform="matrix(1,0,0,-1,41.805,69.232)"/>
<path style="fill-rule:nonzero;fill:rgb(89.99939%,89.99939%,89.99939%);fill-opacity:1;stroke-width:0.3985;stroke-linecap:butt;stroke-linejoin:miter;stroke:rgb(0%,0%,0%);stroke-opacity:1;stroke-miterlimit:10;" d="M -7.086156 -7.088031 L 7.085719 -7.088031 L 7.085719 7.08775 L -7.086156 7.08775 Z M -7.086156 -7.088031 " transform="matrix(1,0,0,-1,8.676,99.744)"/>
<path style="fill-rule:nonzero;fill:rgb(89.99939%,89.99939%,89.99939%);fill-opacity:1;stroke-width:0.3985;stroke-linecap:butt;stroke-linejoin:miter;stroke:rgb(0%,0%,0%);stroke-opacity:1;stroke-miterlimit:10;" d="M -7.08475 -7.088031 L 7.087125 -7.088031 L 7.087125 7.08775 L -7.08475 7.08775 Z M -7.08475 -7.088031 " transform="matrix(1,0,0,-1,25.241,99.744)"/>
<path style="fill-rule:nonzero;fill:rgb(89.99939%,89.99939%,89.99939%);fill-opacity:1;stroke-width:0.3985;stroke-linecap:butt;stroke-linejoin:miter;stroke:rgb(0%,0%,0%);stroke-opacity:1;stroke-miterlimit:10;" d="M -7.08625 -7.088031 L 7.085625 -7.088031 L 7.085625 7.08775 L -7.08625 7.08775 Z M -7.08625 -7.088031 " transform="matrix(1,0,0,-1,41.805,99.744)"/>
<path style="fill-rule:nonzero;fill:rgb(89.99939%,89.99939%,89.99939%);fill-opacity:1;stroke-width:0.3985;stroke-linecap:butt;stroke-linejoin:miter;stroke:rgb(0%,0%,0%);stroke-opacity:1;stroke-miterlimit:10;" d="M -7.08775 -7.088031 L 7.088031 -7.088031 L 7.088031 7.08775 L -7.08775 7.08775 Z M -7.08775 -7.088031 " transform="matrix(1,0,0,-1,58.369,99.744)"/>
<path style="fill-rule:nonzero;fill:rgb(89.99939%,89.99939%,89.99939%);fill-opacity:1;stroke-width:0.3985;stroke-linecap:butt;stroke-linejoin:miter;stroke:rgb(0%,0%,0%);stroke-opacity:1;stroke-miterlimit:10;" d="M -7.086156 -7.08775 L 7.085719 -7.08775 L 7.085719 7.088031 L -7.086156 7.088031 Z M -7.086156 -7.08775 " transform="matrix(1,0,0,-1,8.676,130.256)"/>
<path style="fill-rule:nonzero;fill:rgb(89.99939%,89.99939%,89.99939%);fill-opacity:1;stroke-width:0.3985;stroke-linecap:butt;stroke-linejoin:miter;stroke:rgb(0%,0%,0%);stroke-opacity:1;stroke-miterlimit:10;" d="M -7.08475 -7.08775 L 7.087125 -7.08775 L 7.087125 7.088031 L -7.08475 7.088031 Z M -7.08475 -7.08775 " transform="matrix(1,0,0,-1,25.241,130.256)"/>
<path style="fill-rule:nonzero;fill:rgb(89.99939%,89.99939%,89.99939%);fill-opacity:1;stroke-width:0.3985;stroke-linecap:butt;stroke-linejoin:miter;stroke:rgb(0%,0%,0%);stroke-opacity:1;stroke-miterlimit:10;" d="M -7.08625 -7.08775 L 7.085625 -7.08775 L 7.085625 7.088031 L -7.08625 7.088031 Z M -7.08625 -7.08775 " transform="matrix(1,0,0,-1,41.805,130.256)"/>
<path style="fill-rule:nonzero;fill:rgb(89.99939%,89.99939%,89.99939%);fill-opacity:1;stroke-width:0.3985;stroke-linecap:butt;stroke-linejoin:miter;stroke:rgb(0%,0%,0%);stroke-opacity:1;stroke-miterlimit:10;" d="M -7.08775 -7.08775 L 7.088031 -7.08775 L 7.088031 7.088031 L -7.08775 7.088031 Z M -7.08775 -7.08775 " transform="matrix(1,0,0,-1,58.369,130.256)"/>
<path style="fill-rule:nonzero;fill:rgb(89.99939%,89.99939%,89.99939%);fill-opacity:1;stroke-width:0.3985;stroke-linecap:butt;stroke-linejoin:miter;stroke:rgb(0%,0%,0%);stroke-opacity:1;stroke-miterlimit:10;" d="M -7.085344 -7.08775 L 7.086531 -7.08775 L 7.086531 7.088031 L -7.085344 7.088031 Z M -7.085344 -7.08775 " transform="matrix(1,0,0,-1,74.933,130.256)"/>
<path style="fill:none;stroke-width:0.3985;stroke-linecap:butt;stroke-linejoin:miter;stroke:rgb(0%,0%,0%);stroke-opacity:1;stroke-miterlimit:10;" d="M 10.805781 -18.091188 L 10.805781 -33.634156 " transform="matrix(1,0,0,-1,-2.13,-2.599)"/>
<path style="fill:none;stroke-width:0.3985;stroke-linecap:round;stroke-linejoin:round;stroke:rgb(0%,0%,0%);stroke-opacity:1;stroke-miterlimit:10;" d="M -2.073714 2.390646 C -1.694807 0.957053 -0.851057 0.277365 0.000505 0.00002125 C -0.851057 -0.277322 -1.694807 -0.95701 -2.073714 -2.390604 " transform="matrix(0,1,1,0,8.67576,31.23387)"/>
<path style="fill:none;stroke-width:0.3985;stroke-linecap:butt;stroke-linejoin:miter;stroke:rgb(0%,0%,0%);stroke-opacity:1;stroke-miterlimit:10;" d="M 10.805781 -48.602906 L 10.805781 -64.145875 " transform="matrix(1,0,0,-1,-2.13,-2.599)"/>
<path style="fill:none;stroke-width:0.3985;stroke-linecap:round;stroke-linejoin:round;stroke:rgb(0%,0%,0%);stroke-opacity:1;stroke-miterlimit:10;" d="M -2.070419 2.390646 C -1.695419 0.957053 -0.851669 0.277365 -0.00010625 0.00002125 C -0.851669 -0.277322 -1.695419 -0.95701 -2.070419 -2.390604 " transform="matrix(0,1,1,0,8.67576,61.7462)"/>
<path style="fill:none;stroke-width:0.3985;stroke-linecap:butt;stroke-linejoin:miter;stroke:rgb(0%,0%,0%);stroke-opacity:1;stroke-miterlimit:10;" d="M 10.805781 -79.114625 L 10.805781 -94.657594 " transform="matrix(1,0,0,-1,-2.13,-2.599)"/>
<path style="fill:none;stroke-width:0.3985;stroke-linecap:round;stroke-linejoin:round;stroke:rgb(0%,0%,0%);stroke-opacity:1;stroke-miterlimit:10;" d="M -2.07101 2.390646 C -1.692104 0.957053 -0.848354 0.277365 -0.0006975 0.00002125 C -0.848354 -0.277322 -1.692104 -0.95701 -2.07101 -2.390604 " transform="matrix(0,1,1,0,8.67576,92.25851)"/>
<path style="fill:none;stroke-width:0.3985;stroke-linecap:butt;stroke-linejoin:miter;stroke:rgb(0%,0%,0%);stroke-opacity:1;stroke-miterlimit:10;" d="M 10.805781 -109.63025 L 10.805781 -125.169313 " transform="matrix(1,0,0,-1,-2.13,-2.599)"/>
<path style="fill:none;stroke-width:0.3985;stroke-linecap:round;stroke-linejoin:round;stroke:rgb(0%,0%,0%);stroke-opacity:1;stroke-miterlimit:10;" d="M -2.071611 2.390646 C -1.692705 0.957053 -0.848955 0.277365 -0.00129875 0.00002125 C -0.848955 -0.277322 -1.692705 -0.95701 -2.071611 -2.390604 " transform="matrix(0,1,1,0,8.67576,122.77083)"/>
<path style="fill:none;stroke-width:0.3985;stroke-linecap:butt;stroke-linejoin:miter;stroke:rgb(0%,0%,0%);stroke-opacity:1;stroke-miterlimit:10;" d="M 27.368281 -48.602906 L 27.368281 -64.145875 " transform="matrix(1,0,0,-1,-2.13,-2.599)"/>
<path style="fill:none;stroke-width:0.3985;stroke-linecap:round;stroke-linejoin:round;stroke:rgb(0%,0%,0%);stroke-opacity:1;stroke-miterlimit:10;" d="M -2.070419 2.392613 C -1.695419 0.955113 -0.851669 0.279331 -0.00010625 -0.00191875 C -0.851669 -0.279262 -1.695419 -0.955044 -2.070419 -2.392544 " transform="matrix(0,1,1,0,25.2402,61.7462)"/>
<path style="fill:none;stroke-width:0.3985;stroke-linecap:butt;stroke-linejoin:miter;stroke:rgb(0%,0%,0%);stroke-opacity:1;stroke-miterlimit:10;" d="M 27.368281 -79.114625 L 27.368281 -94.657594 " transform="matrix(1,0,0,-1,-2.13,-2.599)"/>
<path style="fill:none;stroke-width:0.3985;stroke-linecap:round;stroke-linejoin:round;stroke:rgb(0%,0%,0%);stroke-opacity:1;stroke-miterlimit:10;" d="M -2.07101 2.392613 C -1.692104 0.955113 -0.848354 0.279331 -0.0006975 -0.00191875 C -0.848354 -0.279262 -1.692104 -0.955044 -2.07101 -2.392544 " transform="matrix(0,1,1,0,25.2402,92.25851)"/>
<path style="fill:none;stroke-width:0.3985;stroke-linecap:butt;stroke-linejoin:miter;stroke:rgb(0%,0%,0%);stroke-opacity:1;stroke-miterlimit:10;" d="M 27.368281 -109.63025 L 27.368281 -125.169313 " transform="matrix(1,0,0,-1,-2.13,-2.599)"/>
<path style="fill:none;stroke-width:0.3985;stroke-linecap:round;stroke-linejoin:round;stroke:rgb(0%,0%,0%);stroke-opacity:1;stroke-miterlimit:10;" d="M -2.071611 2.392613 C -1.692705 0.955113 -0.848955 0.279331 -0.00129875 -0.00191875 C -0.848955 -0.279262 -1.692705 -0.955044 -2.071611 -2.392544 " transform="matrix(0,1,1,0,25.2402,122.77083)"/>
<path style="fill:none;stroke-width:0.3985;stroke-linecap:butt;stroke-linejoin:miter;stroke:rgb(0%,0%,0%);stroke-opacity:1;stroke-miterlimit:10;" d="M 43.934688 -79.114625 L 43.934688 -94.657594 " transform="matrix(1,0,0,-1,-2.13,-2.599)"/>
<path style="fill:none;stroke-width:0.3985;stroke-linecap:round;stroke-linejoin:round;stroke:rgb(0%,0%,0%);stroke-opacity:1;stroke-miterlimit:10;" d="M -2.07101 2.390683 C -1.692104 0.957089 -0.848354 0.277401 -0.0006975 0.0000575 C -0.848354 -0.277286 -1.692104 -0.956974 -2.07101 -2.390567 " transform="matrix(0,1,1,0,41.80463,92.25851)"/>
<path style="fill:none;stroke-width:0.3985;stroke-linecap:butt;stroke-linejoin:miter;stroke:rgb(0%,0%,0%);stroke-opacity:1;stroke-miterlimit:10;" d="M 43.934688 -109.63025 L 43.934688 -125.169313 " transform="matrix(1,0,0,-1,-2.13,-2.599)"/>
<path style="fill:none;stroke-width:0.3985;stroke-linecap:round;stroke-linejoin:round;stroke:rgb(0%,0%,0%);stroke-opacity:1;stroke-miterlimit:10;" d="M -2.071611 2.390683 C -1.692705 0.957089 -0.848955 0.277401 -0.00129875 0.0000575 C -0.848955 -0.277286 -1.692705 -0.956974 -2.071611 -2.390567 " transform="matrix(0,1,1,0,41.80463,122.77083)"/>
<path style="fill:none;stroke-width:0.3985;stroke-linecap:butt;stroke-linejoin:miter;stroke:rgb(0%,0%,0%);stroke-opacity:1;stroke-miterlimit:10;" d="M 60.497188 -109.63025 L 60.497188 -125.169313 " transform="matrix(1,0,0,-1,-2.13,-2.599)"/>
<path style="fill:none;stroke-width:0.3985;stroke-linecap:round;stroke-linejoin:round;stroke:rgb(0%,0%,0%);stroke-opacity:1;stroke-miterlimit:10;" d="M -2.071611 2.392639 C -1.692705 0.955139 -0.848955 0.279358 -0.00129875 -0.0018925 C -0.848955 -0.279236 -1.692705 -0.955017 -2.071611 -2.392517 " transform="matrix(0,1,1,0,58.36908,122.77083)"/>
</g>
</svg>
